<?xml version="1.0" encoding="UTF-8" standalone="no"?>
<svg
   xmlns:dc="http://purl.org/dc/elements/1.1/"
   xmlns:cc="http://creativecommons.org/ns#"
   xmlns:rdf="http://www.w3.org/1999/02/22-rdf-syntax-ns#"
   xmlns:svg="http://www.w3.org/2000/svg"
   xmlns="http://www.w3.org/2000/svg"
   xmlns:sodipodi="http://sodipodi.sourceforge.net/DTD/sodipodi-0.dtd"
   xmlns:inkscape="http://www.inkscape.org/namespaces/inkscape"
   width="895"
   height="419"
   viewBox="0 0 236.80208 110.86042"
   version="1.1"
   id="svg8"
   inkscape:version="1.0.2 (e86c8708, 2021-01-15)"
   sodipodi:docname="drawing2.svg">
  <defs
     id="defs2" />
  <sodipodi:namedview
     id="base"
     pagecolor="#ffffff"
     bordercolor="#666666"
     borderopacity="1.0"
     inkscape:pageopacity="0.0"
     inkscape:pageshadow="2"
     inkscape:zoom="0.92532106"
     inkscape:cx="640.43933"
     inkscape:cy="321.78342"
     inkscape:document-units="mm"
     inkscape:current-layer="layer3"
     inkscape:document-rotation="0"
     showgrid="false"
     inkscape:window-width="1920"
     inkscape:window-height="1107"
     inkscape:window-x="1920"
     inkscape:window-y="23"
     inkscape:window-maximized="0"
     units="px" />
  <metadata
     id="metadata5">
    <rdf:RDF>
      <cc:Work
         rdf:about="">
        <dc:format>image/svg+xml</dc:format>
        <dc:type
           rdf:resource="http://purl.org/dc/dcmitype/StillImage" />
        <dc:title></dc:title>
      </cc:Work>
    </rdf:RDF>
  </metadata>
  <g
     inkscape:groupmode="layer"
     id="layer3"
     inkscape:label="outside 1">
    <path
       style="display:inline;opacity:1;fill:#ebf2f2;fill-opacity:1;fill-rule:evenodd;stroke:none;stroke-width:0.304307;stroke-opacity:1"
       d="m 47.372618,71.260854 a 50.610408,50.610408 0 0 0 12.182133,22.587538 50.610408,50.610408 0 0 0 71.531269,2.465395 50.610408,50.610408 0 0 0 0.871,-0.832448 L 277.23511,-40.114481 243.35837,-76.41021 98.080272,59.185602 a 50.610408,50.610408 0 0 1 -0.870994,0.832463 50.610408,50.610408 0 0 1 -49.836651,11.242804 z"
       id="path970-5" />
    <path
       style="display:inline;fill:#80ea6e;fill-opacity:1;fill-rule:evenodd;stroke:none;stroke-width:0.304307;stroke-opacity:1"
       d="m 174.29131,-150.40903 -146.230952,136.485165 0.01182,0.01267 A 50.610408,50.610408 0 0 0 25.678061,57.552702 50.610408,50.610408 0 0 0 47.372683,71.260917 50.610408,50.610408 0 0 1 61.948937,22.384524 l -0.01182,-0.01267 146.230933,-136.485164 z"
       id="path964-2" />
    <path
       id="path889-2"
       style="display:inline;fill:#6db33f;fill-opacity:1;fill-rule:evenodd;stroke:none;stroke-width:0.304307;stroke-opacity:1"
       d="M 208.16805,-114.1133 61.937108,22.371873 l 0.01182,0.01267 A 50.610408,50.610408 0 0 0 47.372677,71.260932 50.610408,50.610408 0 0 0 97.209328,60.018128 50.610408,50.610408 0 0 0 98.080322,59.185665 L 243.35837,-76.41021 Z" />
  </g>
</svg>
